<?xml version="1.0" encoding="UTF-8"?><svg id="Layer_2" xmlns="http://www.w3.org/2000/svg" viewBox="0 0 372.15 412.01"><defs><style>.cls-1,.cls-2{stroke-width:0px;}.cls-1,.cls-3{fill:#231f20;}.cls-4{fill:#f5ec43;}.cls-4,.cls-5,.cls-6,.cls-7,.cls-8,.cls-3{stroke-miterlimit:10;}.cls-4,.cls-5,.cls-6,.cls-8,.cls-3{stroke:#231f20;}.cls-4,.cls-5,.cls-7,.cls-8,.cls-3{stroke-width:4.6px;}.cls-5{fill:#b6a69e;}.cls-6{fill:#a1cf6d;stroke-width:4.6px;}.cls-7{fill:none;stroke:#fff;}.cls-2{fill:#fff;}.cls-8{fill:#ad9282;}</style></defs><g id="Layer_3"><path class="cls-8" d="M4.42,89.21c-7.47-9.23,6.48-23.15,16.09-16.75,4.89,4.21,4.9,13.34.22,17.72-4.37,3.39-12.78,3.81-16.31-.97Z"/><path class="cls-1" d="M216.75,307.88c5.75,8.41,11.04,17.24,15.76,26.27,1,1.91,1.98,3.84,2.81,5.83-.21-.51.05.14.08.2.17.44.35.87.51,1.31.34.88.67,1.75.99,2.64.64,1.76,1.25,3.54,1.83,5.32,2.32,7.14,4.16,14.44,5.74,21.78,1.81,8.44,3.27,16.94,4.73,25.44.23,1.33,1.87,2.08,3.08,1.75,1.41-.39,1.98-1.74,1.75-3.08-2.6-15.12-5.21-30.31-9.76-44.99-1.78-5.76-3.79-11.48-6.49-16.87-2.44-4.87-5.17-9.6-7.97-14.28s-5.66-9.34-8.74-13.84c-.76-1.11-2.2-1.61-3.42-.9-1.1.65-1.66,2.3-.9,3.42h0Z"/><path class="cls-1" d="M147.29,307.46c.57,10.73.14,21.59-.53,32.3-.16,2.5-.34,4.99-.59,7.49-.3,3.06-.65,5.02-.94,8.2-.69,7.59-.46,15.22.35,22.79.93,8.7,2.53,17.3,4.08,25.91.24,1.33,1.86,2.08,3.08,1.75,1.4-.38,1.99-1.74,1.75-3.08-2.68-14.86-5.46-29.8-4.44-44.97.37-5.49,1.23-10.93,1.6-16.42s.62-11.34.75-17.01.19-11.31-.1-16.96c-.17-3.2-5.17-3.22-5,0h0Z"/><path class="cls-6" d="M132.09,252.94c-2.46,15.07-8.62,48.62-11.08,63.68,14.81-6.48,32.75-5.28,46.57,3.12,2.36-13.32,6.68-26.29,12.77-38.37,3.07,14.25,5.47,28.65,7.18,43.13,16.8-8.32,35.83-12.09,54.54-10.81-3.44-13.01-6.88-26.01-10.31-39.02-.42-1.6-6.39-16.43-7.67-17.49-2.05-1.7-16.75-26.42-47.06-25.79-12.88.27-25.31,17.69-44.94,21.54Z"/><path class="cls-4" d="M83.7,130.2c11.07,17.31,38.88,31.68,43.93,51.6,1.26,4.97,1.3,10.16,1.19,15.28-.41,19.47-2.92,38.9-7.47,57.84,36.4-6.93,76.49-13.29,108.53,5.32,4.37-3.93,3.45-10.9,2.06-16.6-4.19-17.31-9.37-34.38-15.51-51.09,8.92,4.41,17.83,8.83,26.75,13.24,2.2-8.68,11.64-27.97,13.84-36.65-15.06-13.22-37.36-15.84-52.42-29.07-10.39,8.87-26.07,7-39.07,2.81-18.75-6.05-36.26-15.94-51.14-28.87-1.94-1.69-4.1-3.53-6.67-3.48-1.82.03-3.46,1.03-4.97,2.04-7.23,4.83-13.68,10.81-19.06,17.64Z"/><path class="cls-1" d="M152.08,403.48c-9.13-11.1-25.85-16.85-39.93-19.74-9.37-1.93-19.16-1.66-28.43.68-6.85,1.73-8.52,10.67-2.83,14.84,8.19,6,17.77,10.12,27.78,11.83,14.77,2.52,30.38-.22,43.4-7.61Z"/><path class="cls-1" d="M252.19,396.98c.54-2.93,2.99-5.08,5.3-6.96,16.03-13.11,33.76-26.36,54.42-27.72.88-.06,1.81-.08,2.58.33,1.76.92,1.81,3.42,1.32,5.35-2.16,8.51-9.68,14.51-17.22,19.02-14.05,8.41-30.96,14.06-46.78,9.82l.37.17Z"/><path class="cls-5" d="M235.84,48.84c9.31,34.59-17.65,77.94-53.26,83.5-64.47,2.03-89.73-105.18-27.06-126.99,30.85-12.25,69.55,14.48,80.32,43.49Z"/><path class="cls-3" d="M202.78,92.55c17.91-3.01,22.39-40.56,2.12-44.47-24.13-2.24-31.09,47.15-2.12,44.47Z"/><path class="cls-1" d="M147.66,38.27c-16.01,8.67-26.05,41.19-5.28,47.05.9.25,1.81.5,2.71.77,31.52,9.6,36.79-45.85,8.28-48.92-1.97-.21-3.97.16-5.72,1.1Z"/><path class="cls-2" d="M150.34,82.34c7.93,1.66,12.47-7.01,10.68-9.32-5.16-6.96-12.27-12.61-21.3-10.75,0,0-1.98.25-2.43,2.41-1.75,8.38-1.11,14.71,13.05,17.67Z"/><path class="cls-2" d="M151.38,42.55c-10.6,2.88-4.82,8.63,1.31,9.9,2.62.54,4.63-.34,6.71-1.54,2.29-1.33,2.47-4.92.27-6.22-2.62-1.55-6.23-2.52-8.29-2.14Z"/><path class="cls-2" d="M188.37,79.71c.21,2.84,2.38,4.84,4.81,6.35,2.66,1.66,5.74,2.49,8.87,2.38,24.54-.9-21.36-36.49-13.68-8.73Z"/><path class="cls-2" d="M209.27,59.13c.83-1.48.63-3.33-.48-4.6-6.59-7.57-24.45,5.96-7.57,9.7,3.59.59,6.38-2.1,8.05-5.09Z"/><path class="cls-1" d="M250.42,190.77c12.39,2.25,24.54,5.89,36.08,10.95,1.54.68,3.1.16,3.67-1.49,6.05-17.33,12.11-34.65,18.16-51.98.45-1.27-.51-2.73-1.75-3.08-1.38-.38-2.63.47-3.08,1.75-6.05,17.33-12.11,34.65-18.16,51.98l3.67-1.49c-11.95-5.25-24.43-9.13-37.27-11.46-1.33-.24-2.7.36-3.08,1.75-.33,1.21.41,2.83,1.75,3.08h0Z"/><path class="cls-1" d="M90.17,116.09c-16.53-8.67-33.46-16.56-50.71-23.67-4.85-2-9.73-3.93-14.63-5.8-1.26-.48-2.74.53-3.08,1.75-.39,1.41.48,2.59,1.75,3.08,17.03,6.5,33.76,13.78,50.12,21.83,4.71,2.32,9.39,4.7,14.03,7.14,2.85,1.49,5.38-2.82,2.52-4.32h0Z"/><path class="cls-1" d="M285.32,117.72c-4.01,8.93-9.08,18.04-8.32,27.8.17,2.2.72,4.52,2.34,6.02,1.2,1.11,2.83,1.63,4.39,2.1,12.75,3.89,25.5,7.78,38.25,11.67,1.73.53,3.55,1.06,5.31.68,2.46-.53,4.2-2.69,5.63-4.75,14.76-21.25,19.99-47.6,31.78-70.63,3.8-7.43,8-17.34,2.03-23.18-1.89-1.85-4.48-2.79-6.98-3.65-15.38-5.26-27.12-10.19-43.12-13.04-2.08-.37-4.3-.71-6.26.09-2.17.89-3.56,2.99-4.73,5.02-3.43,5.9-13.8,47.37-20.31,61.87Z"/><path class="cls-1" d="M283.16,116.46c-2.72,6.03-5.84,11.98-7.53,18.41-.83,3.17-1.32,6.49-1.18,9.77.13,3.09.76,6.47,3.12,8.68s6.2,2.96,9.32,3.91c3.43,1.05,6.85,2.09,10.28,3.14,6.93,2.11,13.87,4.23,20.8,6.34,3.25.99,6.91,2.6,10.35,1.61,3.01-.87,5.04-3.35,6.76-5.81,3.56-5.1,6.58-10.58,9.26-16.19,5.37-11.25,9.41-23.07,13.89-34.69,2.23-5.78,4.58-11.52,7.29-17.09,2.45-5.04,5.29-10.05,6.29-15.63s-.17-11.21-5.05-14.64c-2.55-1.8-5.69-2.65-8.6-3.66-3.13-1.09-6.24-2.2-9.36-3.3-5.91-2.1-11.85-4.15-17.89-5.84-2.99-.84-6-1.58-9.04-2.23s-6.66-1.67-9.9-1.31c-7.8.86-10.16,10.17-12.16,16.43-5.12,16.07-9.14,32.55-15.12,48.33-.28.73-.56,1.46-.86,2.19-.06.14-.46,1.1-.22.54-.15.35-.31.71-.46,1.06-.55,1.23-.36,2.69.9,3.42,1.07.62,2.87.34,3.42-.9,2.98-6.67,5.15-13.71,7.32-20.68,2.55-8.19,4.93-16.43,7.4-24.64,1-3.31,2-6.63,3.08-9.92.42-1.27.85-2.55,1.31-3.81.18-.48.36-.95.55-1.43.03-.08.07-.17.1-.25.18-.47-.26.56-.05.13.09-.19.17-.38.26-.57.7-1.46,1.61-3,2.87-4.05,2.05-1.7,5.19-.72,7.53-.27,5.92,1.14,11.76,2.68,17.51,4.49s11.47,3.89,17.18,5.91c2.81,1,5.67,1.9,8.46,2.97,2.22.85,4.32,2.09,5.43,4.27,2.03,3.98.17,9.21-1.41,13.05-2.13,5.17-4.92,10.07-7.13,15.21-4.68,10.88-8.48,22.11-12.89,33.1-2.16,5.38-4.51,10.7-7.2,15.85-1.34,2.57-2.77,5.09-4.3,7.55-1.39,2.23-2.78,4.73-4.73,6.53-2.24,2.07-4.96.82-7.51.04-3.27-1-6.53-1.99-9.8-2.99-6.61-2.02-13.23-4.04-19.84-6.05-1.59-.49-3.19-.97-4.78-1.46-1.49-.45-3.08-.8-4.5-1.46-2.33-1.08-2.74-3.52-2.84-5.87-.26-6.09,1.86-11.98,4.29-17.48,1.21-2.74,2.51-5.45,3.75-8.18.55-1.23.35-2.69-.9-3.42-1.07-.63-2.86-.34-3.42.9Z"/><path class="cls-7" d="M349.37,102.27c-9.88-.69-13.64-13.48-12.5-22.04-7.34,94.03-65.19,30.43-19.6,22.18"/><path class="cls-1" d="M164.28,120.19l24.08,3.98c1.33.22,2.69-.35,3.08-1.75.33-1.2-.41-2.85-1.75-3.08l-24.08-3.98c-1.33-.22-2.69.35-3.08,1.75-.33,1.2.41,2.85,1.75,3.08h0Z"/></g></svg>