<?xml version="1.0" encoding="UTF-8"?><svg id="Layer_2" xmlns="http://www.w3.org/2000/svg" viewBox="0 0 113.93 118.86"><defs><style>.cls-1{fill:#fff;stroke-width:0px;}</style></defs><g id="Bakgrunn"><path class="cls-1" d="M48.12,109.32c15.08,7.18,29.62,13.5,46.69,6.51,4.87-1.99,8.22-4.84,10.17-9.09,5.06-11.03,9.45-22.33,8.9-34.85.16-5.94-.4-11.8-2.1-17.57-2.41-8.18-6.36-15.76-9.27-23.66C94.47,8.88,62.03-6.84,40.94,3c-8.13,3.79-16.33,7.47-24.68,10.74-6.97,2.73-12.65,6.84-14.26,14.24-2.33,10.68-3.61,21.58,1.89,31.87,10.72,20.06,22.36,39.06,44.23,49.47Z"/></g></svg>