<?xml version="1.0" encoding="UTF-8"?><svg id="Layer_2" xmlns="http://www.w3.org/2000/svg" viewBox="0 0 81.97 131.33"><defs><style>.cls-1{fill:#fff;stroke-width:0px;}</style></defs><g id="Bakgrunn"><path class="cls-1" d="M75.58,114.11c1.72-3.5,1.67-7.38,3.37-10.77,2.22-11.83,2.97-23.79,3.03-35.8-1.08-7.02-1.98-14.08-3.26-21.06-2.8-15.23-8.65-28.9-21.27-38.74C52.02,3.51,46.21.63,38.96.06c-7.91-.62-13.87,3.73-20.08,6.72C9.22,11.44,6.52,22.25,3.55,31.21-.59,43.72-.42,57.28.63,70.56c.3,3.75,1.46,7.35,2.17,10.93,1.19,5.99,5.31,10.11,7.29,15.49,3.34,9.07,8.63,17.23,13.31,25.66,1.17,2.1,2.73,3.87,4.87,5.07,13.71,7.72,39.11,3.1,47.3-13.6Z"/></g></svg>