<?xml version="1.0" encoding="UTF-8"?><svg id="Layer_2" xmlns="http://www.w3.org/2000/svg" viewBox="0 0 65.79 61.64"><defs><style>.cls-1{fill:#231f20;}.cls-1,.cls-2{stroke-width:0px;}.cls-2{fill:#a1cf6d;}.cls-3{fill:#0a0203;}.cls-3,.cls-4{stroke:#231f20;stroke-miterlimit:10;}.cls-4{fill:#fff;stroke-width:4.6px;}</style></defs><g id="Layer_3"><path class="cls-2" d="M28.39,5.22c-4.05-.55-8.41-.27-11.86,1.92-3.45,2.19-5.65,6.68-4.27,10.52l-.85,2.7c-4.94-.17-8.94,4.91-8.94,9.85,0,4.45,2.09,12.32,10.14,12.32,3.41,0,1.07,5.38,3.95,7.2l1.47-.41c.58,3.5,2.98,6.59,6.11,8.27,3.13,1.67,6.91,1.97,10.34,1.07,1.43-.38,2.28-.89,3.43-1.83.15-.13.49-.51.68-.62.06-.03.12-.05.18-.02.84.37,4.69,1.96,7.03.97,2.65-1.11,4.44-3.59,5.95-6.03,1.62-2.62,3.1-5.44,3.36-8.5l1.94,1.36c1.49,1.42,4.16.54,5.25-1.2s1.05-3.94.93-5.99c-.13-2.19-.41-4.58-1.98-6.1-2.02-1.95-5.23-1.65-8-1.23l2.55-3.3c1.68-2.28,1.64-5.67-.09-7.91-1.73-2.24-5-3.13-7.63-2.07l.34-.28c.36-3.47.62-7.31-1.49-10.09-2.36-3.11-6.85-3.67-10.72-3.12-2.51.36-5.06,1.13-6.94,2.83-1.88,1.7-2.93,4.51-2,6.87"/><path class="cls-1" d="M28.39,2.72c-4.92-.64-10.25-.06-14.26,3.09-3.68,2.88-5.79,7.95-4.28,12.52v-1.33c-.28.9-.57,1.8-.85,2.7l2.41-1.84c-4.38-.04-8.24,2.85-10.08,6.72-1.55,3.25-1.62,6.77-.78,10.22.78,3.21,2.47,6.17,5.15,8.14,1.43,1.05,3.14,1.68,4.89,1.93.56.08,1.11.14,1.67.16-.11,0,.59.03.6.02-.06.07-.4-.06-.46-.11-.19-.14-.22-.25-.37-.39.24.23.05.11,0-.08.08.35.19.7.26,1.06.01.08.07.48,0,.05.03.21.05.41.08.62.07.51.13,1.03.23,1.53.18.88.5,1.76,1,2.51.82,1.22,2.08,2.23,3.63,1.91.5-.1.98-.27,1.47-.41l-3.08-1.75c.96,5.2,5.05,9.33,10,10.92,2.74.87,5.68.93,8.48.4,1.25-.24,2.5-.63,3.6-1.27.98-.57,1.76-1.36,2.64-2.06l-1.77.73.18-.02-1.26-.34c1.84.8,3.72,1.42,5.73,1.6,2.67.23,4.98-.94,6.91-2.7s3.3-3.98,4.55-6.18c1.52-2.64,2.6-5.39,2.91-8.44l-3.76,2.16c.63.44,1.26.87,1.88,1.32-.58-.42.27.24.54.4.35.2.74.38,1.13.48.91.25,1.87.26,2.79.06,3.87-.81,5.51-4.56,5.6-8.17.08-3.37-.23-7.45-2.77-9.95-2.79-2.75-6.89-2.4-10.43-1.87l2.82,3.67c2.13-2.77,4.39-5.29,4.09-9.08-.46-5.85-6.48-9.93-12.09-7.87l2.43,4.18c1.47-1.2,1.3-3.8,1.32-5.59.02-2.12-.26-4.23-1.13-6.17-1.68-3.76-5.39-5.61-9.31-6.07s-8.19.25-11.45,2.29c-3.5,2.2-5.86,6.52-4.42,10.65.45,1.27,1.71,2.12,3.08,1.75,1.24-.34,2.19-1.8,1.75-3.08-.82-2.34.8-4.33,2.81-5.39,2.21-1.17,5.05-1.47,7.51-1.28,2.13.16,4.35,1.01,5.39,2.99,1.22,2.34.78,5.35.53,7.86l.73-1.77-.34.28c-1.91,1.57.14,5.02,2.43,4.18,3.09-1.13,6.4,1.13,5.7,4.58-.38,1.86-2.23,3.57-3.35,5.03-.59.77-.35,2.09.2,2.78.68.85,1.59,1.05,2.63.9,1.66-.25,4.2-.68,5.57.59,1.44,1.33,1.31,4.22,1.31,6,0,.99-.02,2.23-.65,3.07-.15.2-.4.42-.71.55,0,0-.8.14-.46.14.17,0-.36-.16-.18-.03.22.16-.31-.23-.49-.37-.16-.12-.33-.23-.49-.35l-1.44-1.01c-1.71-1.2-3.59.46-3.76,2.16-.23,2.19-1.25,4.23-2.34,6.1-1.03,1.78-2.13,3.57-3.66,4.97-1.28,1.17-2.41,1.47-4.06,1.11-.78-.17-1.54-.42-2.29-.7-.14-.05-.27-.1-.4-.16.33.14.38.16.17.07-.61-.26-1.12-.39-1.77-.28-.99.18-1.48.8-2.21,1.39-.66.55-1.41.89-2.23,1.11-2.03.55-4.22.56-6.25.02-3.68-.99-6.43-3.85-7.12-7.6-.24-1.33-1.86-2.08-3.08-1.75l-1.47.41,1.93.25c.14.1-.07-.09-.04-.06-.07-.08-.14-.22-.17-.31.02.05.12.31.03.03s-.16-.56-.21-.84c-.02-.12-.04-.25-.06-.37-.07-.42.04.34-.01-.08-.18-1.31-.25-2.67-.95-3.84-1.61-2.7-5.01-1.65-7.14-2.82-1.8-.99-2.97-2.8-3.58-4.72-.17-.52-.3-1.04-.42-1.57-.05-.24-.09-.47-.14-.71-.02-.12-.04-.23-.06-.35.07.49,0-.03,0-.13-.09-1.12-.14-2.22.13-3.32.73-2.9,3.07-5.65,6.22-5.62,1.13.01,2.08-.79,2.41-1.84.39-1.23,1.14-2.72.85-4.03-.45-2.07-.29-3.73.93-5.55,2.75-4.1,8.38-4.3,12.79-3.73,1.34.17,2.5-1.27,2.5-2.5,0-1.5-1.15-2.33-2.5-2.5h0Z"/><path class="cls-4" d="M18.1,19.51c-1.99,4.55-1.73,11.65-1.82,15.54.08,1.17.94,2.64,2.01,3.08.89.44,1.69.53,2.78.54,2.4.01,4.65-1.31,5.68-3.47.56-1.19.9-2.48,1.26-3.64.36-1.66.97-4.21,1.22-6.81-3.45-2.46-7.13-4.52-11.13-5.22Z"/><path class="cls-3" d="M26.36,44.39c-.62.06-1.05.64-.92,1.25.15.71.46,1.59,1.11,2.41,1.48,1.86,3.71,2.17,4.88,2.19.44,0,.87-.18,1.14-.53,1.88-2.39,4.6-4.26,7.66-5.82.47-.24.25-.95-.27-.89-4.54.46-9.07.93-13.61,1.39Z"/><path class="cls-2" d="M25.57,28.85c.27,2.49-2.98,3.69-3.62.94-.45-1.33.57-2.88,1.92-2.99.83.41,1.87.98,1.7,2.04Z"/><path class="cls-4" d="M45.23,20.48c1.99,4.55,1.73,11.65,1.82,15.54-.08,1.17-.94,2.64-2.01,3.08-1.13.56-2.31.68-3.44.31-.51-.17-1.05-.24-1.58-.33-2.73-.49-3.97-4.19-4.7-6.55-.36-1.66-.97-4.21-1.22-6.81,3.45-2.46,7.13-4.52,11.13-5.22Z"/><path class="cls-2" d="M37.76,29.82c-.27,2.49,2.98,3.69,3.62.94.45-1.33-.57-2.88-1.92-2.99-.83.41-1.87.98-1.7,2.04Z"/></g></svg>