<?xml version="1.0" encoding="utf-8"?>
<!-- Generator: Adobe Illustrator 27.4.1, SVG Export Plug-In . SVG Version: 6.00 Build 0)  -->
<svg version="1.1" id="Layer_2_00000039845668482797903410000018244273310768548795_"
	 xmlns="http://www.w3.org/2000/svg" xmlns:xlink="http://www.w3.org/1999/xlink" x="0px" y="0px" viewBox="0 0 394.3 383.1"
	 style="enable-background:new 0 0 394.3 383.1;" xml:space="preserve">
<style type="text/css">
	.st0{fill:#EAEAE9;stroke:#231F20;stroke-width:4.21;stroke-miterlimit:10;}
	.st1{fill:#231F20;}
	.st2{fill:#FFFFFF;}
	.st3{fill:#B4B6B7;stroke:#231F20;stroke-width:4.6;stroke-miterlimit:10;}
</style>
<path class="st0" d="M135.1,373.6c109,33.1,236.8-49,256.8-162.4c10.7-206-304.8-297.1-378-98.7C-26.9,210,44,336.4,135.1,373.6
	L135.1,373.6z"/>
<path class="st1" d="M103.2,79.4c69.5,7.9,60,151.6-20.3,126.9C34.1,187.3,43.6,78.5,103.2,79.4z M101,197.4
	c10.6-2.7,26.7-6.4,30.3-18.9C171.4,100.6,1.3,186.7,101,197.4z M104.1,127.2c54.3-0.6-0.8-58.4-21.3-25.6
	C84.6,112.8,91.2,126.7,104.1,127.2z"/>
<path class="st2" d="M101,197.4c-99.7-10.7,70.5-96.9,30.3-18.9C127.7,191,111.6,194.7,101,197.4z"/>
<path class="st2" d="M104.1,127.2c-26.9-5.2-27.8-41.7,4.5-35.2C131.6,106.2,137.4,125.6,104.1,127.2z"/>
<path class="st1" d="M267,59.1c-77.3-7.7-94,142.3-5.1,134.3c2.5-0.2,5.1-0.4,7.6-0.5c58.3-4,49.7-95.8,12.1-127.7
	C277.4,61.7,272.3,59.6,267,59.1L267,59.1z"/>
<path class="st2" d="M249.6,184.1c-23.4,0-31.1-27.2-24.7-32.7c18.7-16.6,42.1-28.4,66.5-17.8c0,0,5.5,1.9,5.5,8.2
	C296.9,166.6,291.3,184.1,249.6,184.1L249.6,184.1z"/>
<path class="st2" d="M270.1,71c28.2,14.4,8.5,27.2-9.6,27.2c-7.7,0-12.9-3.7-18-8.3c-5.7-5.1-4.1-15.3,2.9-17.7
	C253.7,69.4,264.5,68.8,270.1,71L270.1,71z"/>
<path class="st1" d="M222.8,232.7c12.8-2.4,24.8-9.4,33-19.6c0.9-1.1,1-2.5,0-3.5c-0.9-0.9-2.7-1.1-3.5,0
	c-7.8,9.6-18.7,16-30.8,18.3c-1.3,0.2-2.1,1.9-1.8,3.1C220.1,232.4,221.4,233,222.8,232.7L222.8,232.7L222.8,232.7z"/>
<path class="st3" d="M299,297.8c-10,32.3-69.9,40.2-70.8,10.6c1.9-17.1,25-37.2,44.3-39.2C288.8,268.9,304.8,281.6,299,297.8
	L299,297.8z"/>
<path class="st3" d="M86.2,262c-1.6-0.7-3-1.1-4.4-1.1c-5.4-10.4-13.5-19.8-23.4-24c-14.4-6.8-23.2,6.8-20.8,21.9
	c4.1,18.1,24,41.2,38.7,44.5c5.4,0.4,8.9-1.9,10.9-5.9c3.4,3,6.9,5.2,10.1,5.9C112.8,304.5,104,269.6,86.2,262z"/>
<path class="st3" d="M119.9,29.9c12.5-19.6,54.7-17.6,50.1,1.6c-4.3,10.8-23.6,21-37.1,20C121.8,49.7,113.1,39.6,119.9,29.9
	L119.9,29.9z"/>
<path class="st3" d="M126.5,355.8c7.2,6.6,23.9,10,32.6,8.3c9.2-2.5,9-12.2-0.9-18.8C138.9,334.2,111.3,342.6,126.5,355.8
	L126.5,355.8z"/>
<path class="st3" d="M359.1,201.8c9.8-12.5,22.4,7.7,15.3,23.2c-4.6,8-13.6,8.9-17.6,2.1C353.8,220.7,354.1,207.8,359.1,201.8z"/>
</svg>
