<?xml version="1.0" encoding="UTF-8"?><svg id="Layer_2" xmlns="http://www.w3.org/2000/svg" viewBox="0 0 1688.62 2385.4"><defs><style>.cls-1{fill:#c77161;opacity:.38;}.cls-1,.cls-2,.cls-3,.cls-4,.cls-5,.cls-6{stroke-width:0px;}.cls-7,.cls-3,.cls-5{fill:#00b1dc;}.cls-7,.cls-8{stroke:#231f20;stroke-miterlimit:10;stroke-width:2.83px;}.cls-2,.cls-8{fill:#a1cf6d;}.cls-4{fill:#005ba7;}.cls-5{opacity:.15;}.cls-6{fill:#fff;}</style></defs><g id="Layer_3"><path class="cls-5" d="M1686.01,576.95H1.42v773.96c23.23,61.64,102.14,156.92,368.61,162.62,391.26,8.37,500.13-161.06,832.51-161.06,226.08,0,424.87,115.61,483.48,170.19v-945.7Z"/><path class="cls-1" d="M808.62,2157.68c378.33-5.31,683.87-299,877.39-4.92v-630.11c-59.28-54.58-259.52-170.17-488.21-170.17-336.22,0-451.84,166.32-847.61,157.95-269.54-5.7-288.91-94.59-348.79-159.52v811.91c193.52-294.08,441.17,0,807.21-5.14Z"/><path class="cls-2" d="M789.42,2105.82c4.9,11.77,20.06,16.3,32.9,9.56,1.24-.65,9.13-2.95,13-2.46,7.79.98,18.27-9.16,23.77-1.67,8.09,11.02,26.5,4.15,39.77,8.34,11.15,4.7,21.55,2.99,25.09-8.6,17.49-7.37,14.18-30.39,17.87-45.34,5.84-7.2-6.77-11.29-4.46-19.45.01-2.31-.43-3.73-3.2-4.59-6.45-.78-6.39-8.42-10.6-11.13-13.51-1.23-4.85-20.12-17.46-22.67-3.2-.83-3.6-2.64-3.45-5.14-.82-9.89-17.29-13.56-17.66-26.54-1.64-6.36-3.85-2.94-5.98.07-13.95-20.82-40.59-18.12-60.51-22.17-3.67,3.32-6.29,8.06-12.27,8.14-8.3-.26-5.43,19.44-16.46,22.94-3.33,3.72,7.04,9.91-2.81,11.29-7.95,12.54-.97,29.2-4.05,42.94-6.93,18.43-9.41,38.55-5.83,56.75-.7,9.12,10.58,3.93,12.34,9.73Z"/><path class="cls-8" d="M681.56,1571.94c-5.8,41.82,48.62,124.02,95.55,123.48,8.07-3.92,17.41,2.59,24.27,6.79,22.98-.47,33.6,22.09,47.43,36.75,8.23,15.39,12.8,36.88,27.51,44.48,9.4,4.86,26.51,20.75,38.1,13.92,0,0,36.36-15.76,40.82-16.33,23.59-8.92,44.63-39.24,34.37-64.67-4.75-22.48-24.72-43.81-21.27-67.31,15.22-3.05-1.46-17.04,8.54-22.75,2.08-.83,2.46-3.35,1.69-4.93-3.34-7.14,4.82-7.97,5.19-14.15,6.15-6.51,13.25-12.42,17.56-20.33.56-2.15,1.01-4.08,4.01-3.73,8.32.23,6.86-11.19,11.88-15.69,7.74-5.36,17.44-11.16,24.03-17.29,3.78-3.93.28-11.2.28-11.2,6.74-10.97,1.09-18.36-12.98-22.87-56.05-17.96-245.75,9.7-318.61,37.9-15.76,6.1-26.05,12.22-28.35,17.91Z"/><path class="cls-8" d="M237.07,1829.48c2.79,23.75-18.7,37.4-26.25,58.47-24.03,14.29-27.33,44.59-47.12,62.75-4.78,20.55,15.59,36.03,22.52,53.33,30.48,38.72-35.25,86.22-3.69,121.15,12.87,6.5,17.5,31.08,35.21,25.47,30.65-8.85,45.63-39.17,67.58-59.74,7.53-14.33,34.12-25.85,25.54-43.39-16.12-50.36,25.92-95.37,67.41-117.57,8.53-9.99,24.58-13.85,33.41-20.88,7.31-8.94,28.15-3.3,38.35-14.73,42.69-40.81,25.43-104,46.16-153.88,11.41-19.07,24.21-39.12,33.29-59.5.38-5.4,6.77-3.97,8.29-6.81-1.34-5.58,3.67-4.35,6.14-5.74,2.66-1.48,6.9-.09,8.06-4.39-2.03-2.08-4.36,2.58-6.49-.69,3.08-2.81,2.2-9.53,4.7-10.26,6.49-5.41,18.68-12.93,19.73-20.77-3.27-10.9-3.83-30.46-19.93-28.9-46.39,18.51-94.09,39.28-140.38,63.18-56.36,29.11-110.61,62.86-157.81,102.9,0,0,0,0-.01,0-16.34,13.86-2.46,43.95-14.7,60Z"/><path class="cls-8" d="M1686.77,2036.41c-37.69-140.59-94.44-275.31-206.67-371.78,0,0-10.32-9.03-25.45-20.84-24.23-18.91-60.78-44.94-87.05-52.44,0,0,0,0,0,0,0,0,0,0,0,0,0,0-21.79-2.98-31.46-.52-10.62,27.57-36.86,51.51-31.96,83.69,10.78,23.79,31.79,42.15,46.28,64.4,86.3,75.44-19.96,168.55,39.84,262.93,17.98,54.38-23.56,103.31-58.81,134.05-22.61,31.15-10.58,69.5-22.23,103.51-9,5.45-6.99,15.12-11.31,22.52-14.81,13.72-16.95,36.01-8.95,52.5,5.13,2.32,8.67,22.85,13.94,16.48,17.65.8,23.94,5.21,41.16-2.47,19.27-10.53,37.38-14.49,57.9-19.9,17.51-.96,34.69,2.85,50.86,1.87,26.97-17.07,59.61-23.41,88.92-16.3,55.98-33.03,104.17-11.43,143.42,31.39v-289.12h1.57Z"/><path class="cls-7" d="M1541.78,2294.14c-29.32-7.11-61.95-.77-88.92,16.3-16.16.98-33.34-2.83-50.86-1.87-20.52,5.41-38.63,9.36-57.9,19.9-17.22,7.68-23.51,3.27-41.16,2.47-5.27,6.37-8.82-14.16-13.94-16.48-8-16.49-5.86-38.78,8.95-52.5,4.32-7.39,2.31-17.07,11.31-22.52,11.65-34.01-.39-72.36,22.23-103.51,35.26-30.74,76.79-79.67,58.81-134.05-59.8-94.38,46.46-187.5-39.84-262.93-14.48-22.25-35.49-40.61-46.28-64.4-4.91-32.17,21.34-56.11,31.96-83.69,9.68-2.46,31.46.52,31.46.52,0,0,0,0,0,0,.77-.14-218.33-73.51-328.02-75.03-3.68-.08-7.37-.14-11.07-.19,14.07,4.51,19.72,11.89,12.98,22.87,0,0,3.5,7.27-.28,11.2-6.59,6.12-16.29,11.93-24.03,17.29-5.02,4.5-3.55,15.92-11.88,15.69-3-.35-3.45,1.58-4.01,3.73-4.31,7.91-11.41,13.82-17.56,20.33-.37,6.18-8.53,7.01-5.19,14.15.77,1.59.39,4.1-1.69,4.93-10,5.71,6.68,19.71-8.54,22.75-3.46,23.5,16.52,44.83,21.27,67.31,10.26,25.43-10.77,55.75-34.37,64.67-4.46.57-40.82,16.33-40.82,16.33-11.59,6.83-28.69-9.06-38.1-13.92-14.7-7.6-19.28-29.09-27.51-44.48-13.82-14.66-24.44-37.22-47.43-36.75-6.86-4.2-16.2-10.72-24.27-6.79-46.93.54-101.35-81.66-95.55-123.48,2.29-5.69,12.59-11.81,28.35-17.91-103.4,25.12-206.26,62.67-300.31,112.54,46.28-23.9,93.98-44.68,140.38-63.18,16.1-1.56,16.66,18,19.93,28.9-1.05,7.84-13.24,15.36-19.73,20.77-2.5.74-1.61,7.46-4.7,10.26,2.14,3.27,4.46-1.39,6.49.69-1.16,4.31-5.4,2.91-8.06,4.39-2.48,1.39-7.49.15-6.14,5.74-1.52,2.84-7.91,1.41-8.29,6.81-9.08,20.38-21.88,40.43-33.29,59.5-20.73,49.87-3.47,113.07-46.16,153.88-10.2,11.43-31.04,5.78-38.35,14.73-8.84,7.03-24.88,10.89-33.41,20.88-41.49,22.2-83.53,67.21-67.41,117.57,8.59,17.54-18,29.06-25.54,43.39-21.95,20.57-36.94,50.89-67.58,59.74-17.7,5.61-22.34-18.97-35.21-25.47-31.56-34.93,34.17-82.43,3.69-121.15-6.93-17.3-27.3-32.77-22.52-53.33,19.79-18.17,23.09-48.46,47.12-62.75,7.55-21.06,29.04-34.72,26.25-58.47,12.24-16.04-1.64-46.14,14.7-60,0,0,0,0,.01,0-68.79,55.19-127.52,119.33-171.02,192.36-8.08,10.58-13.62,22.8-20.4,34.17-25.91,33.15-44.5,70.63-58.95,110.24v97.31h0v180.42h460.92c-2.14-.6-4.28-1.23-6.33-2.12-2.64.72-4.69-.61-6.39-2.24-13.5-12.94-24.56-27.44-29.03-46.07-.5-2.08-.92-4.16-.25-6.29-3.19-35.59.89-70.99,2.72-106.45.1-1.9.32-3.81.2-5.7-1.29-19.73,2.92-38.68,8.06-57.51.37-1.36,1.03-2.98.63-4.16-4.36-12.88,1.3-25.11,2.27-37.63,1.03-11.55,1.57-23.18,5.29-34.31,3.57-5.85,3.89-13.31,9.07-18.38.49-.2.65-.55.49-1.05.1-.73.63-1.22.96-1.83,2.45-5.28,4.91-10.56,7.36-15.83,6.7-16.69,17.29-30.27,29.94-43.22,14.08-14.41,30.87-20.68,49.55-23.76,9.77-1.61,19.95-3.38,29.64-2.19,6.84.84,14.7.3,20.81,5.14.19.77.56,1.3,1.48,1.1,5.02,2.1,10.18,3.91,15.02,6.36,17.01,8.58,28.48,21.77,34.45,40.12,3.06,9.41,5.69,19.08,10.72,27.83,2.67,4.66,2.52,9.96,1.42,15.11-.9,4.19-1.37,8.22-1.27,12.65.11,4.65-1.78,9.36-.41,14.38,4.03,14.79,2.42,29.76,2.36,44.88-.08,21.34-3.6,41.57-9.64,61.74-2.15,7.18-3.02,14.75-4.46,22.15-.69,3.53.23,7.77-4.32,9.55-.59.23-.61.56-.48,1.12,2.27,9.7-4.73,18.14-3.76,27.69.32,3.14-2.52,5.13-3.46,7.96-1.94,5.83-2.9,11.74-3.84,17.63-.92,5.81-3.98,10.59-6.52,15.49-1.64,3.17-3.02,6.29-4,9.66l-.3.43c-3.49,4.63-4.95,10.34-7.62,15.4-5.6,10.61-14.08,18.27-21.67,26.97-4.9,5.62-10.13,10.74-15.48,15.89-3.75,3.6-7.82,4.88-12.45,5.96-7.89,1.84-15.77,3.31-23.88,1.71-2.56-.51-4.65.63-6.66,1.81-.01,0-.02.01-.04.02h503.31c-9.7-8.3-16.85-18.82-22.43-30.74,1.4-9.19-2.35-17.8-3.09-26.78-1.34-16.39-1.42-32.72-.16-49.09.18-2.39.21-4.74-.22-7.1-1.02-15.05,1.2-29.79,4.63-44.35,1.25-5.3,2.4-10.63,3.65-15.92,2.63-11.16,6.04-22.1,10.74-32.6,5.64-19.52,12.61-38.57,19.96-57.52,4.94-12.74,9.39-25.66,15.24-38.03.48-8.01,4.43-14.72,9.54-20.21,16.09-17.3,35.15-29.62,59.28-32.56,6.85-.83,13.36-3.3,20.14-4.55,12.85-2.37,23.44,1.43,31.9,11.25,2.96,3.44,6.07,6.8,9.9,9.17,7.23,4.47,12.88,10.42,17.76,17.23,3.31,3.3,3.42,7.85,4.72,11.94,1.57,4.76,2.95,9.55,2.6,14.64-.41,4.35,2.57,8.36,2.33,12.68,3.62,22.62-8.25,89.81-13.84,111.76-1.44,5.66-.67,11.31-1.84,16.89-3.93,18.6-4.3,37.31-3.38,56.33.6,12.43.94,25.04.46,37.57-.13,3.47-.62,6.62-3.88,8.61h.07c-.07.74-.73,1.18-.96,1.83-.18,1.67-.36,3.34-.53,5.01-6.09,13-13.44,24.96-26.33,32.45l-.04.24c-2.47,5.38-6.17,9.08-10.57,11.83h533.7v-58.45c-39.24-42.82-87.43-64.42-143.42-31.39ZM941.83,2065.65c-3.69,14.95-.38,37.97-17.87,45.34-3.54,11.59-13.95,13.31-25.09,8.6-13.28-4.19-31.68,2.69-39.77-8.34-5.5-7.49-15.99,2.65-23.77,1.67-3.88-.49-11.76,1.81-13,2.46-12.84,6.74-28,2.21-32.9-9.56-1.77-5.8-13.05-.61-12.34-9.73-3.57-18.2-1.1-38.32,5.83-56.75,3.08-13.74-3.9-30.41,4.05-42.94,9.85-1.38-.52-7.57,2.81-11.29,11.03-3.49,8.16-23.19,16.46-22.94,5.99-.09,8.61-4.82,12.27-8.14,19.92,4.05,46.56,1.35,60.51,22.17,2.14-3.02,4.34-6.43,5.98-.07.37,12.98,16.85,16.66,17.66,26.54-.15,2.5.25,4.31,3.45,5.14,12.61,2.55,3.96,21.44,17.46,22.67,4.21,2.7,4.14,10.34,10.6,11.13,2.76.85,3.21,2.28,3.2,4.59-2.31,8.16,10.3,12.26,4.46,19.45Z"/><rect class="cls-3" x="962.44" y="2003.72" width="293.04" height="380.67"/><rect class="cls-3" x="392.2" y="1972.48" width="293.04" height="409.66"/><path class="cls-4" d="M1681.34.04H1.42c0-6.24.01,695.51,0,718.81,0,0,58.05-18.33,95.96-30.33,241.23-59.08,567.42-28.28,811.19,41.76,216.68,65.25,477.06,192.56,775.17,102.25,6.49-1.97-2.4-832.49-2.4-832.49Z"/><path class="cls-6" d="M1685.2.04H1.42v429.93c379.91,215.67,921.73-154.1,1174.9-221.25,200.63-53.21,413.12,13.13,508.88,50.7V.04Z"/></g></svg>